<?xml version="1.0" standalone="no"?>
<!DOCTYPE svg PUBLIC "-//W3C//DTD SVG 20010904//EN"
 "http://www.w3.org/TR/2001/REC-SVG-20010904/DTD/svg10.dtd">
<svg version="1.0" xmlns="http://www.w3.org/2000/svg"
 width="16.000000pt" height="16.000000pt" viewBox="0 0 16.000000 16.000000"
 preserveAspectRatio="xMidYMid meet">
<metadata>
Created by potrace 1.11, written by Peter Selinger 2001-2013
</metadata>
<g transform="translate(0.000000,16.000000) scale(0.001058,-0.001058)"
fill="#000000" stroke="none">
<path d="M7289 15066 c-2 -2 -67 -6 -144 -10 -77 -3 -165 -9 -195 -11 -96 -9
-264 -26 -290 -30 -14 -2 -50 -6 -80 -10 -30 -3 -93 -12 -140 -20 -47 -8 -103
-17 -125 -20 -42 -6 -57 -8 -140 -25 -27 -5 -61 -12 -75 -14 -14 -3 -50 -10
-80 -16 -30 -6 -66 -14 -80 -16 -14 -3 -88 -21 -165 -40 -732 -182 -1426 -467
-2060 -847 -705 -422 -1325 -948 -1874 -1590 -152 -178 -387 -486 -486 -639
-5 -8 -40 -60 -76 -114 -100 -151 -217 -347 -316 -529 -81 -150 -257 -508
-268 -545 -1 -3 -11 -25 -22 -50 -11 -25 -37 -88 -58 -140 -20 -52 -43 -108
-50 -125 -22 -49 -125 -344 -125 -355 0 -6 -4 -18 -10 -28 -22 -39 -154 -517
-185 -667 -2 -11 -15 -72 -29 -135 -14 -63 -30 -144 -35 -180 -6 -36 -13 -75
-15 -87 -3 -11 -8 -43 -12 -70 -3 -26 -8 -57 -10 -68 -3 -11 -7 -40 -9 -65 -3
-25 -8 -56 -10 -70 -2 -14 -7 -52 -10 -85 -4 -33 -8 -71 -11 -85 -2 -14 -6
-63 -10 -110 -3 -47 -8 -96 -10 -110 -24 -157 -25 -955 0 -1185 2 -22 7 -76
11 -120 3 -44 8 -91 10 -105 2 -14 6 -54 10 -90 4 -36 8 -76 10 -90 2 -14 11
-72 20 -130 105 -685 282 -1288 563 -1925 94 -213 246 -515 331 -655 11 -19
24 -42 28 -50 4 -8 36 -62 71 -120 36 -58 70 -114 76 -125 38 -69 362 -534
386 -555 3 -3 36 -44 73 -93 295 -380 686 -780 1123 -1146 54 -46 219 -174
304 -238 644 -478 1381 -859 2130 -1100 85 -28 178 -58 205 -66 54 -17 274
-76 303 -82 9 -1 37 -8 62 -15 134 -36 531 -112 705 -135 91 -12 176 -22 240
-29 111 -13 163 -18 220 -21 33 -3 110 -8 170 -12 150 -10 699 -9 865 1 188
11 328 23 380 31 14 2 54 6 90 10 36 3 72 8 80 10 8 2 39 7 69 10 30 4 61 8
70 10 15 2 68 11 136 21 17 3 37 7 45 9 8 2 35 7 60 10 24 4 47 8 50 10 3 2
23 6 45 9 22 4 83 16 135 27 52 11 102 22 110 24 8 1 35 8 60 15 25 7 54 14
65 16 152 28 782 232 970 314 11 5 85 36 165 70 218 93 604 285 728 362 21 13
39 23 42 24 15 2 326 196 460 286 558 379 1070 834 1501 1338 699 817 1206
1749 1504 2765 60 203 125 468 160 650 3 17 8 41 10 55 3 14 8 39 10 55 3 17
8 37 10 45 2 8 7 35 10 60 8 58 14 99 20 130 3 14 7 45 10 69 3 23 7 55 9 70
3 14 8 55 12 91 4 36 8 72 9 80 1 8 6 53 10 100 4 47 8 92 10 100 26 135 26
940 0 1220 -2 19 -6 69 -10 110 -3 41 -8 86 -10 100 -2 14 -7 54 -11 90 -3 36
-8 72 -9 81 -2 9 -6 40 -10 70 -3 30 -11 81 -17 114 -5 33 -11 69 -13 80 -1
11 -9 58 -18 105 -9 47 -18 96 -21 110 -3 20 -29 143 -52 245 -2 11 -11 47
-19 80 -9 33 -17 69 -20 79 -10 42 -67 252 -72 266 -3 8 -7 20 -9 25 -26 102
-201 594 -244 690 -11 22 -31 69 -45 105 -57 139 -225 484 -322 660 -284 514
-629 995 -1027 1435 -171 189 -475 485 -643 626 -48 41 -92 79 -98 85 -5 6
-64 54 -130 106 -360 284 -688 502 -1100 731 -98 54 -472 236 -580 282 -60 26
-123 53 -140 60 -77 33 -422 163 -450 169 -5 1 -60 19 -121 39 -280 92 -774
213 -984 242 -25 3 -52 8 -60 10 -31 9 -292 45 -425 59 -111 12 -144 15 -230
22 -49 4 -108 8 -130 10 -55 5 -732 14 -736 10z m571 -340 c236 -10 339 -18
490 -36 41 -5 99 -12 129 -15 30 -4 61 -8 70 -10 9 -1 39 -6 66 -9 54 -7 81
-12 165 -26 120 -21 105 -18 220 -41 157 -31 422 -97 600 -150 803 -237 1582
-628 2255 -1133 108 -80 225 -173 295 -232 105 -89 194 -166 245 -213 115
-106 432 -427 515 -521 46 -52 97 -111 114 -130 62 -71 195 -238 285 -360 51
-69 99 -133 106 -142 60 -73 271 -407 383 -603 384 -675 649 -1391 806 -2185
2 -8 6 -31 10 -50 3 -19 8 -45 10 -56 5 -26 14 -81 21 -131 3 -21 8 -49 10
-63 9 -47 22 -149 30 -235 2 -16 6 -52 9 -80 12 -104 25 -269 32 -410 4 -84 4
-575 0 -660 -5 -96 -17 -266 -21 -310 -10 -93 -36 -326 -39 -342 -2 -10 -7
-40 -10 -68 -10 -69 -15 -101 -27 -167 -5 -32 -12 -70 -15 -85 -79 -465 -279
-1119 -479 -1568 -15 -33 -36 -80 -47 -105 -46 -104 -210 -424 -278 -545 -420
-741 -923 -1349 -1624 -1960 -152 -133 -481 -378 -697 -518 -127 -83 -328
-207 -335 -207 -2 0 -21 -10 -42 -23 -84 -53 -444 -238 -577 -297 -27 -12 -73
-33 -101 -45 -28 -13 -134 -56 -235 -95 -101 -40 -193 -76 -204 -81 -53 -22
-378 -125 -525 -165 -241 -67 -629 -150 -785 -170 -22 -2 -51 -7 -65 -9 -14
-2 -45 -7 -70 -10 -25 -3 -56 -8 -70 -10 -14 -2 -52 -7 -85 -10 -33 -3 -76 -8
-95 -10 -40 -5 -103 -11 -245 -21 -55 -4 -118 -8 -140 -10 -63 -4 -581 -4
-675 0 -110 6 -253 15 -310 21 -196 20 -263 27 -315 35 -33 5 -80 12 -105 15
-25 3 -52 7 -60 9 -8 1 -37 6 -65 10 -63 10 -387 74 -406 80 -8 3 -25 7 -39
10 -90 15 -432 111 -625 175 -480 158 -1054 421 -1429 654 -11 7 -69 43 -130
81 -213 132 -379 248 -621 437 -66 51 -133 105 -150 120 -16 14 -88 77 -160
139 -116 101 -465 443 -571 560 -78 87 -227 264 -306 364 -44 56 -86 109 -95
120 -41 50 -264 367 -288 408 -5 10 -49 80 -96 155 -331 529 -595 1118 -778
1733 -52 176 -111 405 -137 535 -23 114 -44 226 -48 255 -3 19 -10 58 -15 85
-5 28 -15 88 -21 135 -6 47 -13 96 -15 110 -7 52 -18 159 -30 300 -4 41 -8 86
-10 99 -6 35 -18 406 -18 536 0 194 22 615 38 725 3 19 8 60 11 90 3 30 7 67
9 81 3 15 7 45 10 68 10 84 15 117 19 137 6 29 17 93 21 129 3 17 7 41 10 55
3 14 7 34 9 45 56 277 118 527 196 779 34 109 65 208 70 219 5 12 28 74 51
137 23 63 47 129 55 145 7 17 33 80 58 140 207 507 527 1064 883 1538 86 114
291 369 312 387 3 3 39 43 80 90 211 242 649 651 924 862 66 51 126 99 133
106 7 6 17 12 22 12 6 0 12 4 14 8 2 5 48 40 103 79 825 582 1762 985 2739
1178 94 18 189 36 211 39 22 4 67 11 100 16 33 5 80 12 105 15 25 3 56 8 70
10 14 2 57 7 95 11 39 3 77 8 86 9 8 2 55 6 105 10 49 4 105 9 124 11 19 1
114 6 210 9 96 4 176 8 177 8 3 4 259 -1 413 -7z"/>
<path d="M7558 14219 c-3 -13 -29 -98 -57 -189 -29 -91 -74 -235 -101 -320
-27 -85 -68 -216 -91 -290 -24 -74 -44 -137 -44 -140 -2 -7 -18 -60 -60 -190
-20 -63 -40 -128 -45 -145 -4 -16 -123 -399 -265 -850 -141 -451 -258 -827
-260 -835 -3 -8 -22 -71 -44 -140 -21 -69 -132 -422 -245 -784 -114 -363 -209
-662 -212 -665 -3 -3 -33 9 -67 27 -57 31 -158 84 -432 227 -55 29 -181 95
-280 147 -99 52 -247 130 -330 173 -82 43 -179 93 -213 112 -35 19 -66 32 -69
30 -2 -3 11 -34 30 -69 19 -34 65 -121 102 -193 37 -71 85 -161 105 -200 20
-38 77 -146 125 -240 48 -93 100 -192 115 -220 15 -27 58 -108 95 -180 38 -71
85 -163 107 -203 21 -41 38 -77 38 -81 0 -4 -69 -29 -152 -55 -84 -26 -229
-72 -323 -102 -262 -82 -558 -175 -575 -179 -8 -2 -73 -22 -145 -45 -71 -23
-231 -73 -355 -111 -124 -39 -268 -84 -320 -101 -52 -16 -102 -31 -110 -33
-17 -5 -179 -56 -445 -140 -99 -31 -184 -58 -190 -59 -10 -2 -38 -11 -515
-161 -146 -46 -359 -113 -475 -148 -115 -36 -230 -72 -255 -80 -25 -8 -112
-36 -195 -62 -82 -25 -220 -68 -305 -95 -85 -26 -165 -51 -178 -55 -23 -7 -23
-17 1 -21 7 -1 91 -27 187 -57 96 -30 204 -64 240 -75 36 -11 144 -45 240 -75
96 -30 204 -64 240 -75 36 -11 254 -79 485 -152 231 -72 479 -149 550 -171 72
-22 148 -47 170 -54 22 -8 94 -30 160 -50 66 -20 138 -43 160 -50 22 -8 63
-21 90 -29 56 -16 248 -76 630 -196 143 -45 287 -90 320 -100 33 -10 206 -64
385 -120 179 -56 403 -126 499 -156 96 -30 177 -57 179 -59 6 -5 -33 -81 -228
-450 -20 -38 -72 -137 -115 -220 -43 -82 -92 -177 -110 -210 -18 -33 -67 -127
-110 -210 -43 -82 -97 -187 -121 -232 l-44 -82 78 41 c273 143 481 252 632
331 63 33 151 79 195 102 44 23 143 75 220 115 77 40 168 88 202 106 34 19 66
34 71 34 9 0 12 -9 71 -200 22 -69 98 -314 171 -545 72 -231 133 -424 134
-430 1 -5 18 -62 38 -125 20 -63 62 -196 93 -295 31 -99 78 -250 105 -335 27
-85 67 -216 90 -290 23 -74 49 -155 57 -180 8 -25 37 -115 63 -200 26 -85 71
-229 100 -320 80 -256 190 -609 210 -675 10 -33 55 -177 100 -320 45 -143 108
-345 140 -449 33 -103 61 -190 64 -193 2 -3 9 10 14 29 6 18 33 107 62 198 28
91 60 192 70 225 10 33 32 103 48 155 17 52 62 196 100 320 39 124 130 414
202 645 73 231 153 490 180 575 26 85 83 265 125 400 43 135 78 250 80 255 1
6 5 17 8 25 3 8 20 62 37 120 17 58 35 116 40 130 13 37 61 193 66 210 2 8 20
67 40 130 93 292 116 367 124 395 4 17 34 111 65 210 32 99 68 214 81 255 49
164 85 274 89 278 4 4 233 -109 260 -128 6 -4 90 -48 188 -99 97 -50 205 -106
240 -125 59 -32 155 -82 415 -217 64 -34 155 -82 200 -106 46 -24 86 -42 89
-40 2 3 -17 45 -43 93 -25 49 -68 130 -94 179 -26 50 -73 140 -105 200 -32 61
-81 155 -110 210 -29 55 -81 154 -115 220 -34 66 -86 165 -115 220 -29 55 -71
135 -94 178 -22 43 -41 82 -41 86 0 4 30 17 68 29 101 32 270 85 437 137 83
26 227 71 320 100 94 29 231 72 305 95 74 23 169 52 210 65 94 30 225 71 410
129 80 25 413 129 740 232 327 102 651 203 720 224 69 21 184 57 255 80 72 22
182 56 245 76 63 19 194 60 290 90 96 31 198 62 225 70 28 9 57 18 65 21 8 3
20 7 25 8 6 2 64 20 130 40 92 29 115 40 100 46 -18 7 -127 42 -520 164 -82
26 -184 57 -225 70 -354 111 -457 143 -605 190 -93 29 -231 72 -305 95 -74 23
-176 55 -226 71 -50 16 -99 31 -110 33 -10 2 -32 9 -48 16 -16 6 -73 24 -125
40 -181 54 -476 146 -758 236 -95 30 -181 57 -190 59 -10 2 -90 27 -178 55
-141 46 -258 82 -305 95 -8 3 -94 29 -190 60 -96 31 -238 75 -315 99 -288 89
-440 137 -444 141 -3 4 121 255 139 280 4 6 44 82 90 170 45 88 102 196 125
240 56 106 137 261 220 420 37 72 86 163 107 203 22 41 38 76 35 78 -2 3 -24
-6 -48 -19 -24 -13 -111 -59 -194 -102 -82 -43 -181 -94 -220 -115 -38 -21
-137 -72 -220 -115 -82 -43 -186 -97 -230 -120 -44 -23 -134 -71 -200 -105
-66 -34 -152 -80 -192 -101 -39 -22 -76 -39 -81 -39 -5 0 -21 39 -36 88 -15
48 -46 146 -68 217 -22 72 -58 184 -78 250 -34 108 -89 283 -156 495 -12 41
-105 336 -204 655 -100 319 -192 614 -205 655 -13 41 -44 143 -70 225 -58 186
-140 447 -195 625 -23 74 -69 221 -102 325 -33 105 -70 224 -83 265 -65 213
-198 636 -230 734 -11 35 -13 36 -17 15z m7 -2635 l0 -1516 -97 -3 c-110 -5
-249 -18 -313 -31 -11 -3 -36 -7 -55 -10 -96 -15 -405 -103 -435 -124 -17 -11
-106 -42 -110 -38 -4 3 48 173 242 788 30 96 63 202 73 235 22 72 97 313 138
445 17 52 76 240 131 418 56 177 146 467 202 645 120 384 132 422 129 422 -1
0 5 18 14 40 8 22 29 86 46 143 17 56 32 102 33 102 1 0 2 -682 2 -1516z m220
-1864 c33 -5 80 -11 105 -14 45 -6 72 -11 120 -21 14 -3 34 -7 45 -10 159 -33
410 -130 554 -213 105 -60 113 -65 181 -111 436 -296 761 -773 885 -1296 16
-67 33 -165 42 -240 10 -76 10 -434 0 -500 -27 -184 -52 -299 -88 -408 -128
-386 -338 -705 -644 -978 -55 -48 -217 -167 -285 -209 -146 -88 -360 -187
-483 -221 -178 -51 -176 -51 -357 -79 -91 -15 -159 -18 -325 -15 -115 1 -226
6 -245 9 -19 4 -64 11 -100 17 -150 26 -341 84 -492 150 -679 298 -1169 936
-1274 1658 -4 25 -9 55 -11 66 -9 36 -12 429 -3 480 4 28 10 73 14 100 11 91
48 249 81 350 201 608 664 1102 1255 1340 172 69 385 124 552 141 34 3 64 8
66 9 7 6 354 2 407 -5z m2380 -1234 c154 -48 291 -91 305 -96 14 -4 86 -27
160 -50 74 -23 182 -57 240 -75 175 -56 371 -117 930 -290 294 -92 582 -182
640 -200 58 -19 134 -43 170 -54 36 -11 151 -47 256 -80 105 -34 198 -61 207
-61 9 0 18 -3 20 -8 3 -4 -676 -7 -1509 -7 l-1514 0 -1 35 c-5 128 -15 259
-24 310 -3 14 -7 39 -10 55 -3 17 -7 41 -10 55 -3 14 -12 61 -21 105 -16 83
-103 355 -129 405 -18 35 -19 54 -2 47 6 -2 138 -43 292 -91z m-5104 -951 c9
-314 66 -604 171 -873 22 -57 38 -105 36 -107 -2 -3 -69 16 -149 41 -149 47
-278 88 -699 219 -135 42 -274 86 -310 98 -36 11 -70 21 -75 23 -6 1 -83 24
-170 52 -229 72 -601 189 -882 276 -43 13 -195 61 -338 106 -143 45 -287 90
-320 100 -136 41 -288 89 -290 92 -2 2 678 3 1511 3 l1514 0 1 -30z m3516
-2277 c-9 -25 -304 -970 -312 -998 -2 -8 -21 -71 -43 -140 -49 -152 -105 -331
-108 -345 -2 -5 -30 -98 -64 -205 -34 -107 -83 -265 -110 -350 -26 -85 -73
-234 -103 -330 -65 -206 -119 -381 -123 -395 -4 -14 -55 -178 -98 -313 -20
-63 -36 -121 -36 -129 0 -9 -3 -13 -7 -9 -5 4 -8 685 -8 1512 l0 1504 35 1
c86 2 267 16 305 24 11 3 38 7 60 10 150 20 495 119 573 164 24 14 45 13 39
-1z"/>
<path d="M6814 8319 l-626 -626 -1 -626 c-1 -345 0 -627 3 -627 48 -4 2492 -1
2496 3 3 3 7 566 8 1251 1 1240 1 1246 -19 1247 -11 0 -293 1 -628 2 l-607 2
-626 -626z m1537 281 c4 -17 3 -1820 -1 -1821 -12 -3 -1806 -5 -1815 -2 -7 2
-10 136 -10 388 l0 385 528 528 527 527 385 0 c212 0 386 -2 386 -5z"/>
<path d="M7917 8172 c-147 -147 -267 -270 -267 -274 0 -5 95 -175 212 -380
116 -205 219 -386 228 -403 99 -178 95 -168 69 -155 -13 7 -91 51 -174 98 -82
47 -170 96 -195 110 -25 14 -74 42 -110 62 -36 20 -85 49 -110 62 -25 14 -76
43 -115 65 -38 22 -97 55 -130 73 -33 18 -68 38 -78 44 -15 9 -56 -28 -287
-259 -148 -148 -267 -271 -265 -274 7 -6 1485 -5 1491 2 7 6 8 1486 2 1492 -2
2 -124 -116 -271 -263z"/>
<path d="M11058 11445 c-2 -2 -16 -5 -33 -8 -139 -23 -253 -154 -263 -302 -14
-224 173 -392 391 -353 163 30 278 173 273 339 -4 148 -120 289 -257 314 -44
8 -107 14 -111 10z"/>
<path d="M3944 11421 c-96 -25 -186 -100 -227 -189 -17 -38 -21 -66 -21 -142
-1 -86 2 -100 28 -145 83 -147 227 -212 384 -173 55 13 138 65 167 104 11 15
25 33 32 39 25 25 51 132 48 192 -5 75 -9 92 -35 143 -29 57 -94 118 -157 147
-56 26 -165 38 -219 24z"/>
<path d="M11059 4369 c-102 -15 -202 -91 -248 -189 -33 -70 -36 -189 -8 -262
86 -223 379 -285 547 -115 135 137 128 360 -14 485 -80 70 -170 96 -277 81z"/>
<path d="M4007 4353 c-2 -1 -18 -5 -36 -8 -158 -28 -278 -185 -266 -347 7 -90
34 -147 102 -215 51 -51 73 -65 126 -82 208 -64 409 66 435 282 23 191 -120
359 -315 370 -24 2 -45 2 -46 0z"/>
</g>
</svg>
