<?xml version="1.0" encoding="UTF-8"?>
<svg width="508px" height="199px" viewBox="0 0 508 199" version="1.1" xmlns="http://www.w3.org/2000/svg" xmlns:xlink="http://www.w3.org/1999/xlink">
    <!-- Generator: Sketch 42 (36781) - http://www.bohemiancoding.com/sketch -->
    <title>berg-linear</title>
    <desc>Created with Sketch.</desc>
    <defs></defs>
    <g id="Page-1" stroke="none" stroke-width="1" fill="none" fill-rule="evenodd">
        <g id="berg-linear">
            <g id="berg">
                <path d="M199.04402,99.0246 C199.04402,153.7146 154.486231,198.0486 99.5224121,198.0486 C44.5575879,198.0486 -0.000201005025,153.7146 -0.000201005025,99.0246 C-0.000201005025,44.3346 44.5575879,0.0006 99.5224121,0.0006 C154.486231,0.0006 199.04402,44.3346 199.04402,99.0246" id="sea" fill="#69C7EC"></path>
                <path d="M6.0240201,65.0192 L193.02,65.0192 C179.079296,27.0802 142.479296,0.0002 99.5225126,0.0002 C56.5647236,0.0002 19.9657286,27.0802 6.0240201,65.0192" id="sky" fill="#A4DDF0"></path>
                <polygon id="base" fill="#1D9DD0" points="51 130 36 92 40 70 153 70 162 83 157 113 129 136 107 173 87 163"></polygon>
                <polygon id="tip" fill="#FEFEFE" points="118 38 101 36 90 25 68 41 63 57 40 70 60 77 114 83 153 70 139 59"></polygon>
            </g>
            <g id="Page-1" transform="translate(230.000000, 59.000000)" fill="#1D9DD0">
                <polygon id="Fill-1" points="0 79 14 79 14 9 0 9"></polygon>
                <path d="M70.7761364,65.1168878 C68.7519504,76.1407902 59.4645085,81.0007902 48.1528806,81.0007902 C32.6757953,81.0007902 22.3167256,70.6881073 22.3167256,52.4354488 C22.3167256,34.1808146 32.6757953,23.512522 48.5100899,23.512522 C61.1314853,23.512522 69.2282295,30.2691073 69.9426481,41.1724976 L57.7975318,44.3729854 C56.8449736,38.2110585 53.8682295,34.7734976 48.2719504,34.7734976 C40.2962605,34.7734976 36.1288186,41.6486195 36.1288186,52.3169122 C36.1288186,63.1017659 40.770555,69.9768878 48.5100899,69.9768878 C53.3919504,69.9768878 56.8449736,67.7246927 58.2738109,61.4422537 L70.7761364,65.1168878 Z" id="Fill-2"></path>
                <path d="M110.663715,46.3892927 C110.782784,45.5595366 110.782784,45.0853902 110.782784,44.3741707 C110.782784,38.565878 107.329761,34.1800244 101.021048,34.1800244 C94.4722109,34.1800244 90.304769,38.9214878 89.4712806,46.3892927 L110.663715,46.3892927 Z M112.211622,62.1526829 L124.356738,66.0643902 C121.737203,77.0902683 111.973482,81 101.257203,81 C85.8991876,81 75.4210481,70.8058537 75.4210481,52.9088049 C75.4210481,34.1800244 85.5419783,23.5117317 101.614412,23.5117317 C116.736273,23.5117317 124.356738,33.5873415 124.356738,47.456122 C124.356738,50.0639268 124.118598,52.6717317 123.52325,54.8053902 L89.1140713,54.8053902 C89.4712806,63.9307317 93.7558078,70.0966098 101.733482,70.0966098 C106.615343,70.0966098 110.306505,68.2000244 112.211622,62.1526829 L112.211622,62.1526829 Z" id="Fill-5"></path>
                <path d="M156.147374,79.3408829 C153.05156,80.170639 150.432025,80.6447854 147.81249,80.6447854 C140.192025,80.6447854 133.407033,76.9701512 133.407033,67.3686878 L133.407033,0.399468293 L147.57435,0.399468293 L147.57435,63.4569805 C147.57435,66.8945415 149.717606,68.3169805 152.575281,68.3169805 C154.004118,68.3169805 155.313885,68.0799073 156.742722,67.4872244 L156.147374,79.3408829 Z" id="Fill-7"></path>
                <path d="M194.844056,56.2276317 C182.4608,55.872022 177.698009,58.9539732 177.698009,64.5251927 C177.698009,68.1998268 180.200459,70.8056561 184.723126,70.8056561 C189.366847,70.8056561 194.844056,68.3183634 194.844056,62.6286073 L194.844056,56.2276317 Z M209.013358,64.1695829 C209.013358,68.0812902 210.680335,69.2666561 213.06173,69.2666561 C214.371498,69.2666561 215.324056,68.9090707 216.395684,68.4369 L216.395684,78.8661439 C214.371498,80.0534854 211.751963,80.5256561 208.418009,80.5256561 C201.631033,80.5256561 197.344521,77.9178512 195.915684,71.8724854 C193.296149,78.6290707 187.104521,80.9998024 179.841265,80.9998024 C170.079529,80.9998024 163.530691,75.4285829 163.530691,66.0641927 C163.530691,53.8569 173.294412,47.1003146 194.844056,48.2856805 L194.844056,42.4773878 C194.844056,37.1432415 192.224521,34.2983634 187.34266,34.2983634 C182.34173,34.2983634 179.722195,37.3803146 179.364986,42.5959244 L165.435808,40.1066561 C166.269296,28.4900707 176.271157,23.5115341 188.057079,23.5115341 C200.678474,23.5115341 209.013358,28.8476561 209.013358,41.1734854 L209.013358,64.1695829 Z" id="Fill-9"></path>
                <path d="M238.304322,57.5309415 C238.304322,67.369478 244.49595,70.6885024 249.73502,70.6885024 C256.996291,70.6885024 263.06885,64.7616732 263.06885,52.1967951 C263.06885,40.2265756 258.308043,34.8924293 250.806648,34.8924293 C244.257811,34.8924293 238.304322,39.8709659 238.304322,48.7592341 L238.304322,57.5309415 Z M233.898741,79.5787463 L224.13502,79.5787463 L224.13502,0.400258537 L238.304322,0.400258537 L238.304322,35.1295024 C241.281067,26.8319415 248.306183,23.5129171 256.043733,23.5129171 C269.498617,23.5129171 277.357222,33.3514537 277.357222,50.8928927 C277.357222,68.4363073 268.784198,80.9992098 253.902462,80.9992098 C244.49595,80.9992098 239.256881,76.8524049 237.470834,71.6367951 L233.898741,79.5787463 Z" id="Fill-11"></path>
            </g>
        </g>
    </g>
</svg>