<svg id="Layer_1" data-name="Layer 1" xmlns="http://www.w3.org/2000/svg" width="308.68265" height="58.8623" viewBox="0 0 308.68265 58.8623">
  <defs>
    <style>
      .cls-1 {
        fill: #231f20;
      }

      .cls-2 {
        fill: #ef4d84;
      }

      .cls-3 {
        fill: #ffd400;
      }
    </style>
  </defs>
  <title>ombulabs</title>
  <g>
    <path class="cls-1" d="M224.35159,413.457v.9561h-2.7163v7.4512h-1.1382v-7.4512h-2.7285v-.9561Z" transform="translate(-143.02144 -368.6543)"/>
    <path class="cls-1" d="M234.34909,421.8643h-1.144v-3.8252h-4.5293v3.8252h-1.1441V413.457h1.1441v3.7491h4.5293V413.457h1.144Z" transform="translate(-143.02144 -368.6543)"/>
    <path class="cls-1" d="M243.56689,413.457v.9268h-4.0366v2.793h3.268v.8916h-3.268v2.8691h4.0366v.9268h-5.1807V413.457Z" transform="translate(-143.02144 -368.6543)"/>
    <path class="cls-1" d="M252.57279,420.9082h3.6376v.9561h-4.7758V413.457h1.1382Z" transform="translate(-143.02144 -368.6543)"/>
    <path class="cls-1" d="M264.62939,413.457v.9268h-4.0366v2.793h3.268v.8916h-3.268v2.8691h4.0366v.9268h-5.1807V413.457Z" transform="translate(-143.02144 -368.6543)"/>
    <path class="cls-1" d="M275.16649,421.8643h-.8804a.37813.37813,0,0,1-.24609-.0762.4661.4661,0,0,1-.14111-.1934l-.7861-2.0302h-3.7725l-.7861,2.0302a.46336.46336,0,0,1-.1411.1875.3744.3744,0,0,1-.24609.0821h-.88041l3.3618-8.4073h1.1558Zm-5.5093-3.1211h3.1387l-1.3198-3.4209a6.31775,6.31775,0,0,1-.2525-.792q-.06435.24015-.1259.4433-.06225.2022-.1206.3545Z" transform="translate(-143.02144 -368.6543)"/>
    <path class="cls-1" d="M279.02439,413.4951a.58465.58465,0,0,1,.167.1553l4.8701,6.3359q-.01755-.15225-.0234-.2959t-.0059-.2783V413.457h.9971v8.4073h-.5747a.49014.49014,0,0,1-.2261-.0469.57113.57113,0,0,1-.1787-.1582l-4.8643-6.3311q.01185.14655.0176.2871c.00391.0948.0064.1807.0064.2588v5.9903h-.9976V413.457h.5864A.51064.51064,0,0,1,279.02439,413.4951Z" transform="translate(-143.02144 -368.6543)"/>
    <path class="cls-1" d="M297.62059,414.7705a.461.461,0,0,1-.1118.1318.2416.2416,0,0,1-.1524.045.40255.40255,0,0,1-.2319-.1006,3.61827,3.61827,0,0,0-.33449-.2197,2.71056,2.71056,0,0,0-.48681-.2198,2.09854,2.09854,0,0,0-.6894-.0996,2.04057,2.04057,0,0,0-.67479.1026,1.43456,1.43456,0,0,0-.48981.2783,1.14192,1.14192,0,0,0-.2964.414,1.31123,1.31123,0,0,0-.0996.5127.948.948,0,0,0,.1729.584,1.47631,1.47631,0,0,0,.458.3965,3.50545,3.50545,0,0,0,.645.2842q.361.12015.7393.25.3786.12885.7392.29a2.60334,2.60334,0,0,1,.6455.4072,1.86551,1.86551,0,0,1,.4575.6045,2.00973,2.00973,0,0,1,.17341.8809,2.834,2.834,0,0,1-.188,1.0352,2.39046,2.39046,0,0,1-.54831.8418,2.57316,2.57316,0,0,1-.8863.5634,3.26252,3.26252,0,0,1-1.1938.2051,3.64949,3.64949,0,0,1-1.4873-.2959,3.49215,3.49215,0,0,1-1.147-.8008l.3286-.54a.43222.43222,0,0,1,.1143-.1084.2681.2681,0,0,1,.1499-.044.4661.4661,0,0,1,.2812.1319,4.77452,4.77452,0,0,0,.396.29,3.03031,3.03031,0,0,0,.5752.291,2.27136,2.27136,0,0,0,.8242.1319,2.16607,2.16607,0,0,0,.7217-.1114,1.53557,1.53557,0,0,0,.5371-.3144,1.3654,1.3654,0,0,0,.3374-.4834,1.62258,1.62258,0,0,0,.1172-.6279,1.04991,1.04991,0,0,0-.1733-.625,1.44388,1.44388,0,0,0-.4546-.4082,3.17254,3.17254,0,0,0-.6426-.2784l-.7393-.2343a7.53955,7.53955,0,0,1-.7392-.2793,2.40268,2.40268,0,0,1-.64209-.4102,1.89127,1.89127,0,0,1-.45511-.6308,2.30263,2.30263,0,0,1,.502-2.5381,2.42589,2.42589,0,0,1,.8125-.5157,2.96194,2.96194,0,0,1,1.1118-.1943,3.56708,3.56708,0,0,1,1.2851.2236,2.94835,2.94835,0,0,1,1.01471.6455Z" transform="translate(-143.02144 -368.6543)"/>
    <path class="cls-1" d="M309.32519,417.6631a4.84163,4.84163,0,0,1-.2998,1.7344,3.96868,3.96868,0,0,1-.8438,1.3574,3.78022,3.78022,0,0,1-1.312.8838,4.71954,4.71954,0,0,1-3.3823,0,3.78876,3.78876,0,0,1-1.3081-.8838,3.97169,3.97169,0,0,1-.84519-1.3574,5.17193,5.17193,0,0,1,0-3.4678,4.00712,4.00712,0,0,1,.84519-1.3613,3.79941,3.79941,0,0,1,1.3081-.8887,4.664,4.664,0,0,1,3.3823,0,3.79071,3.79071,0,0,1,1.312.8887,4.00408,4.00408,0,0,1,.8438,1.3613A4.83611,4.83611,0,0,1,309.32519,417.6631Zm-1.167,0a4.25658,4.25658,0,0,0-.2119-1.3906,2.94316,2.94316,0,0,0-.5986-1.0411,2.59669,2.59669,0,0,0-.9385-.6543,3.4207,3.4207,0,0,0-2.4585,0,2.62761,2.62761,0,0,0-.9414.6543,2.91879,2.91879,0,0,0-.6016,1.0411,4.68045,4.68045,0,0,0,0,2.7783,2.92584,2.92584,0,0,0,.6016,1.039,2.5935,2.5935,0,0,0,.9414.6504,3.44748,3.44748,0,0,0,2.4585,0,2.56323,2.56323,0,0,0,.9385-.6504,2.95036,2.95036,0,0,0,.5986-1.039A4.22216,4.22216,0,0,0,308.15819,417.6631Z" transform="translate(-143.02144 -368.6543)"/>
    <path class="cls-1" d="M318.04389,413.457v.9268h-4.0361v2.9394H317.457v.9268h-3.44921v3.6143h-1.1445V413.457Z" transform="translate(-143.02144 -368.6543)"/>
    <path class="cls-1" d="M327.21389,413.457v.9561H324.498v7.4512h-1.13861v-7.4512h-2.7285v-.9561Z" transform="translate(-143.02144 -368.6543)"/>
    <path class="cls-1" d="M329.45509,413.457h.9453a.40245.40245,0,0,1,.2519.0762.3726.3726,0,0,1,.1348.1934l1.7363,5.8437c.0313.1055.06061.2188.086.3399.0254.122.0488.249.0722.3818.02741-.1328.0547-.2617.0821-.3848a2.86219,2.86219,0,0,1,.0947-.3369l1.9775-5.8437a.42621.42621,0,0,1,.1368-.1846.38021.38021,0,0,1,.25-.085h.3281a.39331.39331,0,0,1,.25.0762.41678.41678,0,0,1,.1377.1934l1.9658,5.8437a5.74186,5.74186,0,0,1,.1875.6983c.0234-.129.0449-.253.0645-.3702a2.53875,2.53875,0,0,1,.0761-.3281l1.7422-5.8437a.36859.36859,0,0,1,.1328-.1875.3862.3862,0,0,1,.249-.0821h.8858l-2.6231,8.4073h-1.0205l-2.1298-6.4131a3.52581,3.52581,0,0,1-.1172-.4219q-.02939.11715-.0557.2256-.0264.1083-.0557.1963l-2.1416,6.4131h-1.0205Z" transform="translate(-143.02144 -368.6543)"/>
    <path class="cls-1" d="M350.70119,421.8643h-.8809a.37816.37816,0,0,1-.2461-.0762.46771.46771,0,0,1-.1406-.1934l-.7871-2.0302H344.875l-.78711,2.0302a.45845.45845,0,0,1-.1406.1875.3744.3744,0,0,1-.2461.0821h-.8809l3.3633-8.4073h1.1543Zm-5.5098-3.1211h3.1387l-1.3203-3.4209a6.39244,6.39244,0,0,1-.252-.792c-.043.1601-.0859.3076-.1269.4433-.0411.1348-.0801.253-.1192.3545Z" transform="translate(-143.02144 -368.6543)"/>
    <path class="cls-1" d="M354.99609,418.3555v3.5088h-1.1328V413.457h2.3769a5.20663,5.20663,0,0,1,1.3789.1612,2.63179,2.63179,0,0,1,.959.4658,1.87731,1.87731,0,0,1,.5606.7363,2.46739,2.46739,0,0,1,.1816.9658,2.42655,2.42655,0,0,1-.1406.833,2.206,2.206,0,0,1-.4082.6954,2.43658,2.43658,0,0,1-.6524.5253,3.1982,3.1982,0,0,1-.87109.3282,1.20454,1.20454,0,0,1,.377.3574l2.45119,3.3389h-1.0078a.498.498,0,0,1-.459-.2403l-2.1817-3.0039a.62831.62831,0,0,0-.2168-.2031.79116.79116,0,0,0-.3535-.0615Zm0-.8272h1.1914a2.90249,2.90249,0,0,0,.877-.1201,1.77088,1.77088,0,0,0,.6328-.3408,1.4122,1.4122,0,0,0,.38471-.5244,1.71639,1.71639,0,0,0,.12889-.6748,1.34245,1.34245,0,0,0-.4961-1.1328,2.39519,2.39519,0,0,0-1.4746-.3809h-1.2441Z" transform="translate(-143.02144 -368.6543)"/>
    <path class="cls-1" d="M368.46679,413.457v.9268h-4.0371v2.793h3.2676v.8916h-3.2676v2.8691h4.0371v.9268h-5.1816V413.457Z" transform="translate(-143.02144 -368.6543)"/>
    <path class="cls-1" d="M376.334,421.8643V413.457h2.68159a5.14169,5.14169,0,0,1,1.336.1524,2.58048,2.58048,0,0,1,.9199.4336,1.72378,1.72378,0,0,1,.5351.6894,2.33462,2.33462,0,0,1,.1719.919,1.85791,1.85791,0,0,1-.0957.5976,1.734,1.734,0,0,1-.293.5342,2.14184,2.14184,0,0,1-.4941.4404,2.74894,2.74894,0,0,1-.6953.3164,2.58928,2.58928,0,0,1,1.39061.6631,1.73817,1.73817,0,0,1,.46879,1.2676,2.3631,2.3631,0,0,1-.1953.9736,2.072,2.072,0,0,1-.5762.7569,2.68117,2.68117,0,0,1-.9258.4902,4.16778,4.16778,0,0,1-1.2539.1729Zm1.13869-4.6407h1.5019a2.92723,2.92723,0,0,0,.834-.1054,1.70748,1.70748,0,0,0,.584-.294,1.13866,1.13866,0,0,0,.3418-.4551,1.49878,1.49878,0,0,0,.1133-.583,1.29138,1.29138,0,0,0-.4473-1.0859,2.25269,2.25269,0,0,0-1.3848-.3457h-1.5429Zm0,.8096v2.9277H379.291a2.78258,2.78258,0,0,0,.83789-.1113,1.5589,1.5589,0,0,0,.5742-.3144,1.2194,1.2194,0,0,0,.3321-.4805,1.72437,1.72437,0,0,0,.1054-.6133,1.26508,1.26508,0,0,0-.4609-1.0303,2.16526,2.16526,0,0,0-1.3945-.3779Z" transform="translate(-143.02144 -368.6543)"/>
    <path class="cls-1" d="M393.71879,417.6631a4.86346,4.86346,0,0,1-.2989,1.7344,4.00206,4.00206,0,0,1-.8457,1.3574,3.78062,3.78062,0,0,1-1.3105.8838,4.72088,4.72088,0,0,1-3.3828,0,3.771,3.771,0,0,1-1.3086-.8838,3.9731,3.9731,0,0,1-.8457-1.3574,5.17857,5.17857,0,0,1,0-3.4678,4.00854,4.00854,0,0,1,.8457-1.3613,3.78156,3.78156,0,0,1,1.3086-.8887,4.66536,4.66536,0,0,1,3.3828,0,3.79116,3.79116,0,0,1,1.3105.8887,4.03793,4.03793,0,0,1,.8457,1.3613A4.85791,4.85791,0,0,1,393.71879,417.6631Zm-1.168,0a4.28126,4.28126,0,0,0-.211-1.3906,2.91494,2.91494,0,0,0-.5996-1.0411,2.59632,2.59632,0,0,0-.9375-.6543,3.42178,3.42178,0,0,0-2.4589,0,2.6288,2.6288,0,0,0-.9415.6543,2.92,2.92,0,0,0-.6015,1.0411,4.67833,4.67833,0,0,0,0,2.7783,2.927,2.927,0,0,0,.6015,1.039,2.59466,2.59466,0,0,0,.9415.6504,3.44856,3.44856,0,0,0,2.4589,0,2.56281,2.56281,0,0,0,.9375-.6504,2.92194,2.92194,0,0,0,.5996-1.039A4.24659,4.24659,0,0,0,392.55079,417.6631Z" transform="translate(-143.02144 -368.6543)"/>
    <path class="cls-1" d="M400.52539,420.9609a2.346,2.346,0,0,0,.93161-.1757,1.97229,1.97229,0,0,0,.69529-.4932,2.16027,2.16027,0,0,0,.4356-.7568,3.00086,3.00086,0,0,0,.1484-.9688V413.457h1.1328v5.1094a3.83606,3.83606,0,0,1-.2324,1.3496,3.13934,3.13934,0,0,1-.6621,1.0772,3.035,3.035,0,0,1-1.0527.7129,3.91131,3.91131,0,0,1-2.793,0,3.05022,3.05022,0,0,1-1.0566-.7129,3.11653,3.11653,0,0,1-.666-1.0772,3.83654,3.83654,0,0,1-.2325-1.3496V413.457h1.1328v5.1035a2.99922,2.99922,0,0,0,.15041.9688,2.15678,2.15678,0,0,0,.43359.7568,1.9838,1.9838,0,0,0,.6992.4961A2.32952,2.32952,0,0,0,400.52539,420.9609Z" transform="translate(-143.02144 -368.6543)"/>
    <path class="cls-1" d="M413.53319,413.457v.9561h-2.7168v7.4512h-1.1387v-7.4512h-2.7285v-.9561Z" transform="translate(-143.02144 -368.6543)"/>
    <path class="cls-1" d="M418.06049,421.8643h-1.1367V413.457h1.1367Z" transform="translate(-143.02144 -368.6543)"/>
    <path class="cls-1" d="M430.10739,417.6631a5.12216,5.12216,0,0,1-.1211,1.1269,4.30552,4.30552,0,0,1-.3496.9942,3.87165,3.87165,0,0,1-.5566.8359,3.74484,3.74484,0,0,1-.7383.6514L430.5,423.6006h-.93951a1.11075,1.11075,0,0,1-.375-.0586.74863.74863,0,0,1-.2988-.2051l-1.4785-1.6074a4.95345,4.95345,0,0,1-.6953.1641,4.70668,4.70668,0,0,1-.75389.0585,4.39673,4.39673,0,0,1-1.68951-.3134,3.77289,3.77289,0,0,1-1.3086-.8838,3.976,3.976,0,0,1-.8457-1.3574,5.1802,5.1802,0,0,1,0-3.4678,4.01148,4.01148,0,0,1,.8457-1.3613,3.78343,3.78343,0,0,1,1.3086-.8887,4.66536,4.66536,0,0,1,3.3828,0,3.79063,3.79063,0,0,1,1.3106.8887,4.0395,4.0395,0,0,1,.8457,1.3613A4.8579,4.8579,0,0,1,430.10739,417.6631Zm-1.1679,0a4.284,4.284,0,0,0-.211-1.3906,2.91509,2.91509,0,0,0-.5996-1.0411,2.59632,2.59632,0,0,0-.9375-.6543,3.422,3.422,0,0,0-2.459,0,2.62828,2.62828,0,0,0-.94139.6543,2.91983,2.91983,0,0,0-.60151,1.0411,4.67833,4.67833,0,0,0,0,2.7783,2.9269,2.9269,0,0,0,.60151,1.039,2.59415,2.59415,0,0,0,.94139.6504,3.44883,3.44883,0,0,0,2.459,0,2.56281,2.56281,0,0,0,.9375-.6504,2.92208,2.92208,0,0,0,.5996-1.039A4.24925,4.24925,0,0,0,428.93949,417.6631Z" transform="translate(-143.02144 -368.6543)"/>
    <path class="cls-1" d="M436.91409,420.9609a2.346,2.346,0,0,0,.9316-.1757,1.97328,1.97328,0,0,0,.69531-.4932,2.16025,2.16025,0,0,0,.43559-.7568,3.00085,3.00085,0,0,0,.14841-.9688V413.457h1.13279v5.1094a3.83629,3.83629,0,0,1-.2324,1.3496,3.13934,3.13934,0,0,1-.6621,1.0772,3.03447,3.03447,0,0,1-1.0528.7129,3.911,3.911,0,0,1-2.7929,0,3.05167,3.05167,0,0,1-1.0567-.7129,3.11952,3.11952,0,0,1-.666-1.0772,3.83629,3.83629,0,0,1-.2324-1.3496V413.457h1.1328v5.1035a2.9995,2.9995,0,0,0,.1504.9688,2.15541,2.15541,0,0,0,.4336.7568,1.9838,1.9838,0,0,0,.6992.4961A2.32952,2.32952,0,0,0,436.91409,420.9609Z" transform="translate(-143.02144 -368.6543)"/>
    <path class="cls-1" d="M449.375,413.457v.9268h-4.03521v2.793h3.2676v.8916h-3.2676v2.8691H449.375v.9268h-5.17971V413.457Z" transform="translate(-143.02144 -368.6543)"/>
  </g>
  <g>
    <path class="cls-2" d="M248.09959,388.4321a16.83113,16.83113,0,0,1-1.1719,6.3208A14.938,14.938,0,0,1,238.5,403.2246a18.72064,18.72064,0,0,1-13.31931,0,14.95181,14.95181,0,0,1-8.46-8.4717,17.63334,17.63334,0,0,1,0-12.6421,15.01008,15.01008,0,0,1,3.3106-5.0737,15.304,15.304,0,0,1,5.1494-3.3755,17.50925,17.50925,0,0,1,6.665-1.2256A17.30436,17.30436,0,0,1,238.5,373.6724a15.35636,15.35636,0,0,1,5.12789,3.3862,15.11912,15.11912,0,0,1,3.2998,5.0737A16.77682,16.77682,0,0,1,248.09959,388.4321Zm-7.4394,0a13.54476,13.54476,0,0,0-.6016-4.1821,8.866,8.866,0,0,0-1.7305-3.1494,7.46886,7.46886,0,0,0-2.7627-1.978,9.51629,9.51629,0,0,0-3.7197-.688,9.64986,9.64986,0,0,0-3.7519.688,7.445,7.445,0,0,0-2.7735,1.978,8.83672,8.83672,0,0,0-1.7305,3.1494,14.889,14.889,0,0,0,0,8.3853,8.84076,8.84076,0,0,0,1.7305,3.1499,7.34024,7.34024,0,0,0,2.7735,1.9668,9.78931,9.78931,0,0,0,3.7519.6777,9.65358,9.65358,0,0,0,3.7197-.6777,7.36281,7.36281,0,0,0,2.7627-1.9668,8.87007,8.87007,0,0,0,1.7305-3.1499A13.61756,13.61756,0,0,0,240.66019,388.4321Z" transform="translate(-143.02144 -368.6543)"/>
    <path class="cls-2" d="M267.99709,391.4834q.3984.88185.7636,1.8076.3648-.947.7745-1.8403.4071-.8928.83781-1.7324l8.04109-15.8409a2.61841,2.61841,0,0,1,.4414-.6347,1.44254,1.44254,0,0,1,.5049-.3335,1.74827,1.74827,0,0,1,.6337-.1079h6.375v31.3042h-6.4072V386.0884q0-1.311.1289-2.8379l-8.29879,16.103a2.74093,2.74093,0,0,1-1.042,1.1406,2.8873,2.8873,0,0,1-1.49511.3868h-.9883a2.88111,2.88111,0,0,1-1.4941-.3868,2.7365,2.7365,0,0,1-1.043-1.1406l-8.3418-16.1245q.0849.753.1289,1.4941.04245.74205.043,1.3653v18.0171h-6.4073V372.8013h6.375a1.75226,1.75226,0,0,1,.6338.1079,1.45548,1.45548,0,0,1,.50591.3335,2.64625,2.64625,0,0,1,.44039.6347l8.0625,15.9053Q267.59919,390.6008,267.99709,391.4834Z" transform="translate(-143.02144 -368.6543)"/>
    <path class="cls-2" d="M291.22749,404.1055V372.7798H302.751a21.93958,21.93958,0,0,1,5.52629.602,10.52727,10.52727,0,0,1,3.7188,1.6988,6.435,6.435,0,0,1,2.0967,2.666,9.02,9.02,0,0,1,.65521,3.5044,6.85166,6.85166,0,0,1-.30071,2.0317,5.9768,5.9768,0,0,1-.94629,1.8384,7.05592,7.05592,0,0,1-1.65531,1.5586,10.67991,10.67991,0,0,1-2.42969,1.2148,8.62783,8.62783,0,0,1,4.58009,2.4405,6.31811,6.31811,0,0,1,1.4834,4.332,8.94922,8.94922,0,0,1-.7744,3.7197,8.50957,8.50957,0,0,1-2.2676,2.999,10.75757,10.75757,0,0,1-3.68749,1.9991,16.02791,16.02791,0,0,1-5.00981.7207Zm7.2666-18.146h3.7842a12.47435,12.47435,0,0,0,2.1719-.1719,4.51428,4.51428,0,0,0,1.6445-.6021,2.76338,2.76338,0,0,0,1.03231-1.1826,4.43616,4.43616,0,0,0,.35439-1.8921,5.34168,5.34168,0,0,0-.2793-1.8598,2.66779,2.66779,0,0,0-.8603-1.1929,3.60331,3.60331,0,0,0-1.4727-.645,10.116,10.116,0,0,0-2.11809-.1939h-4.25691Zm0,4.8589v7.8046h5.1172a6.40928,6.40928,0,0,0,2.3545-.3652,3.72546,3.72546,0,0,0,1.4297-.9463,3.17505,3.17505,0,0,0,.709-1.3115,5.73242,5.73242,0,0,0,.1943-1.4834,4.93121,4.93121,0,0,0-.2265-1.5483,2.56021,2.56021,0,0,0-.7735-1.1607,3.779,3.779,0,0,0-1.4511-.7309,8.447,8.447,0,0,0-2.2793-.2583Z" transform="translate(-143.02144 -368.6543)"/>
    <path class="cls-2" d="M332.46479,398.3652a6.69144,6.69144,0,0,0,2.6123-.4843,5.27855,5.27855,0,0,0,1.9454-1.3863,6.12563,6.12563,0,0,0,1.2148-2.2041,9.62457,9.62457,0,0,0,.419-2.956V372.7798h7.2675v18.5547a14.49846,14.49846,0,0,1-.9355,5.289,11.88336,11.88336,0,0,1-2.6768,4.1499,12.10222,12.10222,0,0,1-4.2353,2.709,16.83267,16.83267,0,0,1-11.2451,0,12.10173,12.10173,0,0,1-4.2354-2.709,11.75052,11.75052,0,0,1-2.666-4.1499,14.64092,14.64092,0,0,1-.9238-5.289V372.7798h7.2666V391.313a9.62468,9.62468,0,0,0,.4189,2.956,6.25294,6.25294,0,0,0,1.2149,2.2149,5.212,5.212,0,0,0,1.9462,1.397A6.68547,6.68547,0,0,0,332.46479,398.3652Z" transform="translate(-143.02144 -368.6543)"/>
    <path class="cls-1" d="M357.91989,398.3008h11.6104v5.8047h-18.877V372.7798h7.2666Z" transform="translate(-143.02144 -368.6543)"/>
    <path class="cls-1" d="M402.124,404.1055h-5.63381a2.59717,2.59717,0,0,1-1.5586-.4414,2.27149,2.27149,0,0,1-.84859-1.128l-1.84961-5.4609h-11.9111l-1.8487,5.4609a2.494,2.494,0,0,1-2.3652,1.5694h-5.6758l12.126-31.3257H389.998ZM382,392.1299h8.55659l-2.8808-8.5786q-.27975-.81675-.6563-1.9239-.37635-1.1073-.7412-2.3974-.34425,1.31175-.7099,2.4297-.3648,1.11765-.6875,1.9345Z" transform="translate(-143.02144 -368.6543)"/>
    <path class="cls-1" d="M403.80179,404.1055V372.7798h11.5234a21.941,21.941,0,0,1,5.5264.602,10.52673,10.52673,0,0,1,3.7187,1.6988,6.43432,6.43432,0,0,1,2.09671,2.666,9.02018,9.02018,0,0,1,.65529,3.5044,6.84848,6.84848,0,0,1-.3008,2.0317,5.97447,5.97447,0,0,1-.9463,1.8384,7.05377,7.05377,0,0,1-1.6553,1.5586,10.67981,10.67981,0,0,1-2.4297,1.2148,8.62744,8.62744,0,0,1,4.5801,2.4405,6.31811,6.31811,0,0,1,1.4834,4.332,8.94922,8.94922,0,0,1-.7744,3.7197,8.50957,8.50957,0,0,1-2.2676,2.999,10.75754,10.75754,0,0,1-3.6875,1.9991,16.02761,16.02761,0,0,1-5.0097.7207Zm7.2666-18.146h3.7841a12.47435,12.47435,0,0,0,2.1719-.1719,4.51428,4.51428,0,0,0,1.6445-.6021,2.76331,2.76331,0,0,0,1.0323-1.1826,4.436,4.436,0,0,0,.3545-1.8921,5.344,5.344,0,0,0-.2793-1.8598,2.66879,2.66879,0,0,0-.86039-1.1929,3.60357,3.60357,0,0,0-1.47261-.645,10.1177,10.1177,0,0,0-2.1182-.1939h-4.2568Zm0,4.8589v7.8046h5.1171a6.409,6.409,0,0,0,2.35451-.3652,3.72542,3.72542,0,0,0,1.42969-.9463,3.17505,3.17505,0,0,0,.709-1.3115,5.73243,5.73243,0,0,0,.19431-1.4834,4.92831,4.92831,0,0,0-.22651-1.5483,2.56027,2.56027,0,0,0-.77349-1.1607,3.77911,3.77911,0,0,0-1.45111-.7309,8.447,8.447,0,0,0-2.2793-.2583Z" transform="translate(-143.02144 -368.6543)"/>
    <path class="cls-1" d="M449.46779,379.144a2.71794,2.71794,0,0,1-.67779.774,1.51539,1.51539,0,0,1-.913.2578,2.23267,2.23267,0,0,1-1.06451-.3115q-.56985-.3114-1.29-.6988a10.70921,10.70921,0,0,0-1.6446-.6987,6.59255,6.59255,0,0,0-2.1074-.312,4.5324,4.5324,0,0,0-3.042.8711,2.96091,2.96091,0,0,0-1,2.354,2.16988,2.16988,0,0,0,.6026,1.5698,5.17314,5.17314,0,0,0,1.58,1.0747,16.88361,16.88361,0,0,0,2.2354.8277q1.25835.37635,2.5693.8388a22.95621,22.95621,0,0,1,2.5694,1.0855,8.577,8.577,0,0,1,2.2363,1.5913,7.42516,7.42516,0,0,1,1.5801,2.354,8.3707,8.3707,0,0,1,.6025,3.3432,10.89287,10.89287,0,0,1-.7529,4.064,9.5124,9.5124,0,0,1-2.1826,3.2998,10.12559,10.12559,0,0,1-3.5254,2.2139,13.18125,13.18125,0,0,1-4.7627.8066,15.22407,15.22407,0,0,1-2.9776-.3008,17.7432,17.7432,0,0,1-2.9345-.8496,16.94139,16.94139,0,0,1-2.6661-1.3008,11.279,11.279,0,0,1-2.1718-1.6767l2.1504-3.397a1.754,1.754,0,0,1,.666-.6235,1.8943,1.8943,0,0,1,.9248-.2363,2.44883,2.44883,0,0,1,1.3008.4086q.65627.40875,1.4834.9029a12.03227,12.03227,0,0,0,1.9023.9033,7.15473,7.15473,0,0,0,2.5371.4082,4.82794,4.82794,0,0,0,3.0752-.8711,3.31493,3.31493,0,0,0,1.0957-2.7622,2.611,2.611,0,0,0-.6016-1.7847,4.65451,4.65451,0,0,0-1.58-1.1396,14.626,14.626,0,0,0-2.22559-.7954q-1.24667-.3435-2.55861-.7632a18.73843,18.73843,0,0,1-2.5586-1.0322,8.05676,8.05676,0,0,1-2.2246-1.6123,7.52325,7.52325,0,0,1-1.5801-2.4942,9.88112,9.88112,0,0,1-.6025-3.687,8.73713,8.73713,0,0,1,.7099-3.4399,8.8796,8.8796,0,0,1,2.085-2.9888,10.26257,10.26257,0,0,1,3.376-2.0962,12.47085,12.47085,0,0,1,4.5791-.7847,17.18524,17.18524,0,0,1,2.8056.2256,14.76816,14.76816,0,0,1,2.5909.6665,14.23568,14.23568,0,0,1,2.29,1.0537,10.53329,10.53329,0,0,1,1.9023,1.3868Z" transform="translate(-143.02144 -368.6543)"/>
  </g>
  <g>
    <path class="cls-1" d="M154.4463,385.5039c1.8379,5.8486,5.8496,11.3223,10.1621,9.9658,4.3145-1.3554,4.4727-8.1386,2.6367-13.9873a21.3481,21.3481,0,0,0-11.0625-12.8281A21.34965,21.34965,0,0,0,154.4463,385.5039Z" transform="translate(-143.02144 -368.6543)"/>
    <path class="cls-3" d="M158.5361,420.5967c4.1446-4.5156,6.877-10.7246,3.5469-13.7842-3.3301-3.0576-9.2832.1953-13.4297,4.7119a21.3417,21.3417,0,0,0-5.5781,15.9922A21.3513,21.3513,0,0,0,158.5361,420.5967Z" transform="translate(-143.02144 -368.6543)"/>
    <path class="cls-2" d="M186.876,399.5078c-5.9824-1.332-12.7266-.5937-13.709,3.8213-.9824,4.4141,4.8105,7.9434,10.793,9.2754a21.33871,21.33871,0,0,0,16.64059-3.1641A21.337,21.337,0,0,0,186.876,399.5078Z" transform="translate(-143.02144 -368.6543)"/>
  </g>
</svg>
