<?xml version="1.0" encoding="utf-8"?>
<!-- Generator: Adobe Illustrator 21.0.2, SVG Export Plug-In . SVG Version: 6.00 Build 0)  -->
<svg version="1.1" id="Layer_1" xmlns="http://www.w3.org/2000/svg" xmlns:xlink="http://www.w3.org/1999/xlink" x="0px" y="0px"
	 viewBox="0 0 569 415" style="enable-background:new 0 0 569 415;" xml:space="preserve">
<style type="text/css">
	.st0{fill:#EDE2CF;}
	.st1{fill:#D4C9B6;}
</style>
<rect class="st0" width="569" height="415"/>
<g id="Page-1">
	<path id="Combined-Shape" class="st1" d="M474,390c-99.4,0-180-80.6-180-180S374.6,30,474,30s180,80.6,180,180S573.4,390,474,390z
		 M474,382c95,0,172-77,172-172S569,38,474,38s-172,77-172,172S379,382,474,382z M553.2,130.8c-3.2-3-3.4-8.1-0.4-11.3
		c3-3.2,8.1-3.4,11.3-0.4c0.2,0.1,0.3,0.3,0.4,0.4c3,3.2,2.8,8.3-0.4,11.3C561,133.7,556.3,133.7,553.2,130.8z M553.2,289.2
		c3-3.3,8-3.5,11.3-0.6c3.3,3,3.5,8,0.6,11.3c-0.2,0.2-0.4,0.4-0.6,0.6c-3.3,3-8.3,2.7-11.3-0.6
		C550.5,296.9,550.5,292.3,553.2,289.2z M394.8,289.2c3.2,3,3.4,8.1,0.4,11.3c-3,3.2-8.1,3.4-11.3,0.4c-0.2-0.1-0.3-0.3-0.4-0.4
		c-3-3.2-2.8-8.3,0.4-11.3C387,286.4,391.8,286.4,394.8,289.2z M394.8,130.8c-3,3.2-8.1,3.3-11.3,0.3s-3.3-8.1-0.3-11.3
		c0.1-0.1,0.2-0.2,0.3-0.3c3.2-3,8.3-2.9,11.3,0.3C397.8,122.9,397.8,127.7,394.8,130.8z M423.7,175.7l-17.6-33.6l33.6,17.6L474,50
		l34.3,109.7l33.6-17.6l-17.6,33.6L634,210l-109.7,34.3l17.6,33.6l-33.6-17.6L474,370l-34.3-109.7l-33.6,17.6l17.6-33.6L314,210
		L423.7,175.7L423.7,175.7z M419.2,234.5c-3.5-7.7-5.2-16.1-5.2-24.5h-73.2L419.2,234.5z M498.5,264.8c-7.7,3.4-16.1,5.2-24.5,5.2
		v73.2L498.5,264.8L498.5,264.8z M528.8,185.5c3.4,7.7,5.2,16.1,5.2,24.5h73.2L528.8,185.5L528.8,185.5z M474,150V76.8l-24.5,78.4
		C457.2,151.8,465.6,150,474,150z M474,262c28.7,0,52-23.3,52-52s-23.3-52-52-52s-52,23.3-52,52S445.3,262,474,262z M471,177h30v60
		h-60v-30L471,177z M449,210.3V229h44v-44h-18.7L449,210.3z M489,225l-13-23l13-13V225z M489,225h-36l13-13L489,225z"/>
</g>
</svg>
