<svg xmlns="http://www.w3.org/2000/svg" width="959" height="354" viewBox="0 0 959 354">
            <polygon class="ser-logo-tn-state" fill="#FF5052" points="107 126 263 118 263 94 279 90 287 98 959 66 951 102 939 102 931 118 931 138 883 138 867 162 855 146 843 166 827 166 823 182 811 186 799 198 763 222 727 222 707 262 687 262 683 278 683 302 35 334 43 314 59 314 59 298 51 290 51 282 47 274 75 246 63 234 75 230 95 206 91 198 99 190 99 174 91 166 103 162 99 146 103 134" opacity=".8"></polygon>
            <path class="ser-logo-compass-bg" fill="#FFFFFF" d="M175.3 259l15.7-52.36A56.3 56.3 0 0 0 206.65 191L310 160l-103.36-31A56.3 56.3 0 0 0 191 113.35L160 10l-31 103.36A56.3 56.3 0 0 0 113.35 129L10 160l103.36 31A56.3 56.3 0 0 0 129 206.65L144.7 259h30.6z"></path>
            <path class="ser-logo-outline" fill="#3F3F3F" d="M160 220v34h12.24l12.26-39.21A59.79 59.79 0 0 1 160 220zm-60-60H26.82l78.4 24.5A59.79 59.79 0 0 1 100 160zm114.79-24.5A59.79 59.79 0 0 1 220 160h73.18l-78.4-24.5zm-79.29-30.29A59.79 59.79 0 0 1 160 100V26.82l-24.5 78.4zM50 175.63L0 160l50-15.63V50h94.38L160 0l15.63 50H934v304H50V175.62zM180.63 66l13.66 43.72 33.6-17.6-17.6 33.6L254 139.37V66h-73.38zM270 144.38L320 160l-50 15.63V254h648V66H270v78.38zm-16 36.25l-43.72 13.66 17.6 33.6-33.6-17.6L180.63 254H254v-73.38zM139.37 254l-13.66-43.72-33.6 17.6 17.6-33.6L66 180.63V254h73.38zm0-188H66v73.38l43.72-13.67-17.6-33.6 33.6 17.6L139.37 66zM66 338h852v-68H66v68zm94-126a52 52 0 1 0 0-104 52 52 0 0 0 0 104zm169.33-64.92c-5.64 0-11-.87-16.06-2.61a39 39 0 0 1-13.46-7.83l9.72-11.61c6.3 5.04 13.11 7.56 20.43 7.56 2.34 0 4.12-.37 5.36-1.13a3.55 3.55 0 0 0 1.84-3.19v-.18a3.4 3.4 0 0 0-.45-1.76c-.3-.5-.85-1-1.66-1.48-.82-.48-1.9-.94-3.25-1.4-1.35-.45-3.1-.91-5.26-1.39-3.36-.78-6.48-1.63-9.36-2.56a28.65 28.65 0 0 1-7.51-3.6 16.31 16.31 0 0 1-5.05-5.5c-1.23-2.19-1.84-4.9-1.84-8.14v-.18c0-2.94.55-5.64 1.67-8.1a17.96 17.96 0 0 1 4.86-6.39c2.13-1.8 4.69-3.2 7.69-4.19 3-.99 6.39-1.48 10.17-1.48 5.4 0 10.21.7 14.44 2.11a36.49 36.49 0 0 1 11.48 6.26l-8.73 12.33a35.39 35.39 0 0 0-8.87-4.64 26.75 26.75 0 0 0-8.77-1.57c-2.1 0-3.67.39-4.73 1.17a3.48 3.48 0 0 0-1.57 2.88v.18c0 .72.16 1.35.5 1.89.33.54.9 1.03 1.7 1.48.82.46 1.92.9 3.33 1.35 1.42.46 3.2.92 5.36 1.4 3.6.78 6.85 1.7 9.76 2.74a29.2 29.2 0 0 1 7.43 3.83 15.3 15.3 0 0 1 4.68 5.45 16.63 16.63 0 0 1 1.62 7.6v.18c0 3.24-.61 6.12-1.85 8.64a18.54 18.54 0 0 1-5.17 6.44 23.42 23.42 0 0 1-8.01 4.05c-3.12.93-6.6 1.39-10.44 1.39zm67.61.18c-4.86 0-9.36-.85-13.5-2.56a32.21 32.21 0 0 1-20.34-30.01v-.19a31.99 31.99 0 0 1 9.72-23.17 33.92 33.92 0 0 1 10.8-7.02 35.02 35.02 0 0 1 13.5-2.57c4.86 0 9.36.85 13.5 2.57a32.21 32.21 0 0 1 20.34 30.01v.18a31.99 31.99 0 0 1-9.72 23.18 33.92 33.92 0 0 1-10.8 7.01 35.02 35.02 0 0 1-13.5 2.57zm.18-15.75c2.4 0 4.59-.45 6.57-1.35 1.98-.9 3.66-2.11 5.04-3.64a16.94 16.94 0 0 0 3.24-5.36c.78-2.04 1.17-4.2 1.17-6.48v-.18c0-2.28-.39-4.44-1.17-6.48a16.38 16.38 0 0 0-8.46-9.13 15.26 15.26 0 0 0-6.57-1.4 15.39 15.39 0 0 0-11.56 5 15.91 15.91 0 0 0-3.25 5.35 18.63 18.63 0 0 0-1.12 6.48v.18c0 2.28.39 4.44 1.17 6.48a17.05 17.05 0 0 0 3.28 5.4c1.42 1.56 3.11 2.8 5.09 3.74 1.98.93 4.17 1.39 6.57 1.39zm73.28 15.66c-4.5 0-8.55-.57-12.15-1.71a23.56 23.56 0 0 1-9.18-5.27 23.24 23.24 0 0 1-5.8-9c-1.36-3.63-2.03-7.9-2.03-12.82V83h17.73v35.01c0 4.56 1.05 7.93 3.15 10.12 2.1 2.2 4.92 3.29 8.46 3.29 3.54 0 6.36-1.05 8.46-3.15 2.1-2.1 3.15-5.37 3.15-9.81V83h17.73v34.92c0 5.1-.7 9.5-2.12 13.18a23.73 23.73 0 0 1-5.94 9.1 23.92 23.92 0 0 1-9.26 5.26 40.6 40.6 0 0 1-12.2 1.71zm57.26-48.87h-18.9V83h55.26v15.3h-18.9V146h-17.46V98.3zM573.67 83h17.46v23.58h22.41V83H631v63h-17.46v-23.94h-22.41V146h-17.46V83zm70.49 0h50.67v14.85h-33.39v9.54h30.24v13.77h-30.24v9.99h33.84V146h-51.12V83zm83.81-.45h16.83L771.62 146H752.9l-4.59-11.25h-24.3l-4.5 11.25h-18.36l26.82-63.45zm15.3 38.61l-7.02-17.91-7.11 17.91h14.13zm61.22 25.92c-5.64 0-11-.87-16.07-2.61a39 39 0 0 1-13.45-7.83l9.72-11.61c6.3 5.04 13.11 7.56 20.43 7.56 2.34 0 4.12-.37 5.36-1.13a3.55 3.55 0 0 0 1.84-3.19v-.18a3.4 3.4 0 0 0-.45-1.76c-.3-.5-.85-1-1.66-1.48-.82-.48-1.9-.94-3.25-1.4-1.35-.45-3.1-.91-5.26-1.39-3.36-.78-6.48-1.63-9.36-2.56a28.65 28.65 0 0 1-7.51-3.6 16.31 16.31 0 0 1-5.05-5.5c-1.23-2.19-1.84-4.9-1.84-8.14v-.18c0-2.94.55-5.64 1.66-8.1a17.96 17.96 0 0 1 4.87-6.39c2.13-1.8 4.69-3.2 7.69-4.19 3-.99 6.39-1.48 10.17-1.48 5.4 0 10.21.7 14.44 2.11a36.49 36.49 0 0 1 11.48 6.26l-8.73 12.33a35.39 35.39 0 0 0-8.87-4.64 26.75 26.75 0 0 0-8.77-1.57c-2.1 0-3.67.39-4.73 1.17a3.48 3.48 0 0 0-1.57 2.88v.18c0 .72.16 1.35.5 1.89.33.54.9 1.03 1.7 1.48.82.46 1.92.9 3.34 1.35 1.4.46 3.19.92 5.35 1.4 3.6.78 6.85 1.7 9.76 2.74a29.2 29.2 0 0 1 7.43 3.83 15.3 15.3 0 0 1 4.68 5.45 16.63 16.63 0 0 1 1.62 7.6v.18c0 3.24-.61 6.12-1.85 8.64a18.54 18.54 0 0 1-5.17 6.44 23.42 23.42 0 0 1-8.01 4.05c-3.12.93-6.6 1.39-10.44 1.39zm51.32-48.78h-18.9V83h55.26v15.3h-18.9V146h-17.46V98.3zM304.58 173h29.79c4.86 0 8.97.6 12.33 1.8a21.1 21.1 0 0 1 8.19 5.04c3.72 3.6 5.58 8.49 5.58 14.67v.18c0 4.86-1.17 8.88-3.51 12.06a22.2 22.2 0 0 1-9.45 7.29L362.54 236h-20.16l-12.69-19.08h-7.65V236h-17.46v-63zm28.98 30.24c3 0 5.31-.67 6.93-2.03a6.72 6.72 0 0 0 2.43-5.44v-.18c0-2.52-.84-4.4-2.52-5.63-1.68-1.23-3.99-1.84-6.93-1.84h-11.43v15.12h11.52zm66.08 33.93c-4.5 0-8.55-.57-12.15-1.71a23.56 23.56 0 0 1-9.18-5.27 23.24 23.24 0 0 1-5.8-9c-1.36-3.63-2.03-7.9-2.03-12.82V173h17.73v35.01c0 4.56 1.05 7.93 3.15 10.13 2.1 2.19 4.92 3.28 8.46 3.28 3.54 0 6.36-1.05 8.46-3.15 2.1-2.1 3.15-5.37 3.15-9.81V173h17.73v34.92c0 5.1-.7 9.5-2.12 13.19a23.73 23.73 0 0 1-5.94 9.08 23.92 23.92 0 0 1-9.27 5.27 40.6 40.6 0 0 1-12.19 1.71zM441.51 173h32.31c3.96 0 7.35.48 10.17 1.44a17.9 17.9 0 0 1 7.02 4.23 13.93 13.93 0 0 1 2.97 4.41 14.5 14.5 0 0 1 1.08 5.76v.18c0 3.66-.91 6.61-2.75 8.86a17.8 17.8 0 0 1-6.97 5.18c3.84 1.26 6.88 3.07 9.14 5.44 2.25 2.38 3.37 5.69 3.37 9.95v.18c0 5.46-2.08 9.72-6.25 12.78-4.18 3.06-10.04 4.59-17.6 4.59h-32.49v-63zm30.51 48.96c2.7 0 4.77-.5 6.21-1.49a4.87 4.87 0 0 0 2.16-4.27v-.18c0-1.74-.69-3.12-2.07-4.14-1.38-1.02-3.54-1.53-6.48-1.53h-13.32v11.61h13.5zm-2.52-23.85c2.7 0 4.75-.45 6.17-1.35 1.4-.9 2.11-2.28 2.11-4.14v-.18a4.6 4.6 0 0 0-1.98-4c-1.32-.94-3.3-1.4-5.94-1.4h-11.34v11.07h10.98zm56.54 14.31L502.1 173h19.89l12.96 22.95L548 173h19.53l-23.94 39.15V236h-17.55v-23.58zM583 180h314v16H583v-16zm0 32h314v16H583v-16zM103.87 321.67c-2.59 0-4.99-.45-7.2-1.37a17.18 17.18 0 0 1-10.85-16v-.1a17.06 17.06 0 0 1 5.19-12.36 18.1 18.1 0 0 1 5.76-3.74c2.2-.92 4.6-1.37 7.2-1.37 2.59 0 4.99.45 7.2 1.37a17.18 17.18 0 0 1 10.85 16v.1a17.06 17.06 0 0 1-5.19 12.36 18.1 18.1 0 0 1-5.76 3.74c-2.2.92-4.6 1.37-7.2 1.37zm.1-8.4c1.28 0 2.45-.24 3.5-.72a8.06 8.06 0 0 0 2.69-1.94 9.6 9.6 0 0 0 2.35-6.31v-.1a9.6 9.6 0 0 0-.62-3.46 8.87 8.87 0 0 0-4.51-4.87 8.14 8.14 0 0 0-3.5-.74 8.2 8.2 0 0 0-7.9 5.52 9.94 9.94 0 0 0-.6 3.45v.1a9.6 9.6 0 0 0 2.37 6.34 8.14 8.14 0 0 0 6.22 2.74zm40.34 8.4c-2.4 0-4.66-.43-6.77-1.3a16.53 16.53 0 0 1-5.5-3.62 17.42 17.42 0 0 1-5.06-12.45v-.1a17.44 17.44 0 0 1 5.04-12.4 16.86 16.86 0 0 1 5.6-3.73 18.3 18.3 0 0 1 7.07-1.34c1.73 0 3.3.17 4.7.5a15.45 15.45 0 0 1 7.03 3.67c.95.87 1.8 1.81 2.53 2.84l-7 5.42a12.1 12.1 0 0 0-3.18-2.88 7.86 7.86 0 0 0-4.17-1.06 7.45 7.45 0 0 0-5.76 2.6c-.7.8-1.26 1.74-1.66 2.83a9.94 9.94 0 0 0-.6 3.45v.1c0 1.25.2 2.42.6 3.53.4 1.1.95 2.05 1.66 2.85a7.45 7.45 0 0 0 5.76 2.6c.86 0 1.65-.1 2.37-.3.72-.18 1.38-.46 1.97-.83.6-.37 1.15-.8 1.68-1.3s1.05-1.05 1.56-1.65l7.01 4.99a25 25 0 0 1-2.62 3.02c-.94.93-2.01 1.73-3.21 2.4-1.2.67-2.55 1.2-4.03 1.59a20.1 20.1 0 0 1-5.02.57zm28.34-26.11h-10.08v-8.16h29.47v8.16h-10.08V321h-9.3v-25.44zm23.83 16.08h9.5V321h-9.5v-9.36zm41.95 10.03c-2.98 0-5.55-.48-7.73-1.44a21.23 21.23 0 0 1-5.9-3.89l5.33-6.24a20.06 20.06 0 0 0 4.03 2.7 9.3 9.3 0 0 0 4.13.95c1.53 0 2.74-.35 3.62-1.05a3.49 3.49 0 0 0 1.32-2.88v-.1c0-1.22-.46-2.17-1.37-2.86a5.78 5.78 0 0 0-3.57-1.03 8.3 8.3 0 0 0-2.86.48c-.88.32-1.72.72-2.52 1.2l-5.52-3.07.96-17.04h22.46v7.68H235.7l-.28 5.09a15 15 0 0 1 2.42-.87 14.57 14.57 0 0 1 7.3.31c1.39.44 2.61 1.09 3.67 1.95a9.45 9.45 0 0 1 2.54 3.31c.64 1.35.96 2.93.96 4.75v.1c0 1.89-.34 3.57-1.03 5.04a10.82 10.82 0 0 1-2.86 3.74 12.73 12.73 0 0 1-4.36 2.36c-1.7.54-3.57.81-5.62.81zM271.88 302h15.75v8.02h-15.75v-8.02zm49.87 19.68c-2.4 0-4.4-.33-6.02-1a13 13 0 0 1-4.25-2.84 13.48 13.48 0 0 1-3-4.87c-.75-2-1.13-4.57-1.13-7.7v-.1c0-2.62.32-5.06.96-7.3.64-2.24 1.6-4.18 2.9-5.83a13.68 13.68 0 0 1 4.88-3.89 15.6 15.6 0 0 1 6.86-1.41c2.37 0 4.42.31 6.14.93 1.73.63 3.41 1.55 5.04 2.76l-4.36 6.58a16.13 16.13 0 0 0-3.1-1.85 8.7 8.7 0 0 0-3.58-.7c-1.98 0-3.48.67-4.48 2-1.01 1.33-1.63 3.05-1.85 5.16a17 17 0 0 1 3.05-1.8 9.94 9.94 0 0 1 4.2-.8c1.47 0 2.88.24 4.22.7 1.34.47 2.52 1.14 3.53 2.02 1 .88 1.81 1.97 2.42 3.29.61 1.3.91 2.8.91 4.46v.1c0 1.88-.35 3.57-1.05 5.06a11.4 11.4 0 0 1-2.86 3.8 12.7 12.7 0 0 1-4.25 2.4c-1.63.55-3.36.83-5.18.83zm-.38-7.25c1.47 0 2.61-.41 3.43-1.24a4.22 4.22 0 0 0 1.22-3.08v-.1c0-1.2-.42-2.23-1.27-3.06-.85-.84-2-1.25-3.48-1.25-1.47 0-2.62.4-3.43 1.22a4.14 4.14 0 0 0-1.23 3.05v.1c0 1.21.43 2.24 1.28 3.1.84.84 2 1.26 3.48 1.26zm18.02 11c3.3-.39 4.9-1.9 4.8-4.52h-3.7v-9.36h9.5v7.64c0 1.79-.23 3.3-.69 4.5a7.25 7.25 0 0 1-2 2.96 8.38 8.38 0 0 1-3.11 1.68c-1.22.37-2.58.57-4.08.6l-.72-3.5zm30.09-11.43l12.58-9.6a17.53 17.53 0 0 0 3.33-3.17c.66-.9.99-1.85.99-2.88 0-1.05-.35-1.88-1.04-2.5-.68-.6-1.59-.9-2.7-.9-1.13 0-2.2.34-3.2 1.03s-2.17 1.78-3.48 3.29l-6.29-5.24c.9-1.15 1.81-2.17 2.74-3.07a13.93 13.93 0 0 1 6.55-3.65c1.3-.32 2.76-.48 4.4-.48 1.82 0 3.49.27 5 .8 1.53.52 2.83 1.25 3.92 2.18a9.7 9.7 0 0 1 2.54 3.38c.61 1.33.92 2.78.92 4.35v.1c0 1.34-.17 2.54-.5 3.6a10.12 10.12 0 0 1-1.52 2.95c-.67.9-1.49 1.78-2.45 2.61a46.3 46.3 0 0 1-3.31 2.6l-5.76 4.03h13.87V321h-26.59v-7zm47.11 7.68c-2.4 0-4.56-.45-6.48-1.37a14.25 14.25 0 0 1-4.87-3.74 17.14 17.14 0 0 1-3.07-5.54 20.68 20.68 0 0 1-1.08-6.72v-.1c0-2.37.36-4.62 1.1-6.74a17.2 17.2 0 0 1 3.12-5.57 14.77 14.77 0 0 1 4.9-3.77 14.7 14.7 0 0 1 6.48-1.4c2.4 0 4.55.46 6.45 1.38 1.9.9 3.53 2.16 4.87 3.74a16.9 16.9 0 0 1 3.1 5.54 20.68 20.68 0 0 1 1.08 6.72v.1c0 2.37-.36 4.62-1.08 6.74a16.62 16.62 0 0 1-3.12 5.57 14.7 14.7 0 0 1-11.4 5.16zm.1-8.25c.92 0 1.77-.23 2.54-.68a5.78 5.78 0 0 0 1.94-1.9c.53-.8.94-1.77 1.23-2.87.29-1.1.43-2.33.43-3.67v-.1c0-1.34-.15-2.58-.46-3.7a9.85 9.85 0 0 0-1.27-2.9 6.24 6.24 0 0 0-1.97-1.92 4.83 4.83 0 0 0-2.54-.7c-.93 0-1.77.23-2.52.68a6.17 6.17 0 0 0-1.94 1.87c-.55.8-.96 1.76-1.25 2.88a14.83 14.83 0 0 0-.43 3.7v.09c0 1.34.15 2.58.45 3.72.3 1.14.73 2.11 1.27 2.93a6 6 0 0 0 1.97 1.9c.77.44 1.62.67 2.55.67zm26.56-17.57l-5.66 1.3-1.78-7.2 9.84-2.79h6.77V321h-9.17v-25.15zm31.46-.63h-15.55v-7.82h25.87v7L470.2 321h-10.27l14.78-25.78zm30.53-7.82h8.69l13.82 17.76V287.4h9.22V321h-8.16l-14.36-18.43V321h-9.21v-33.6zm50.56-.24h8.98l14.3 33.84h-9.98l-2.45-6H553.7l-2.4 6h-9.79l14.3-33.84zm8.16 20.6l-3.74-9.56-3.8 9.55h7.54zm32.86 13.82c-3.01 0-5.87-.47-8.57-1.4a20.8 20.8 0 0 1-7.18-4.17l5.19-6.2c3.36 2.7 6.99 4.04 10.9 4.04 1.24 0 2.2-.2 2.85-.6.66-.4.98-.97.98-1.7v-.1c0-.35-.08-.67-.24-.94a2.45 2.45 0 0 0-.88-.79c-.44-.26-1.01-.5-1.73-.74s-1.66-.5-2.81-.75c-1.8-.41-3.46-.87-5-1.37a15.28 15.28 0 0 1-4-1.92 8.7 8.7 0 0 1-2.69-2.92 8.77 8.77 0 0 1-.98-4.35v-.1c0-1.56.3-3 .89-4.31a9.58 9.58 0 0 1 2.59-3.41 12.2 12.2 0 0 1 4.1-2.23c1.6-.53 3.41-.8 5.43-.8 2.88 0 5.44.38 7.7 1.13 2.26.75 4.3 1.87 6.12 3.34l-4.66 6.57a18.87 18.87 0 0 0-4.72-2.47 14.27 14.27 0 0 0-4.68-.84 4.2 4.2 0 0 0-2.52.63c-.56.41-.84.92-.84 1.53v.1c0 .38.08.72.26 1 .18.3.48.56.91.8.43.24 1.03.48 1.78.72s1.7.49 2.85.74c1.92.42 3.66.9 5.21 1.47 1.55.56 2.87 1.24 3.96 2.04a8.16 8.16 0 0 1 2.5 2.9c.57 1.14.86 2.49.86 4.06v.1c0 1.72-.33 3.26-.98 4.6a9.89 9.89 0 0 1-2.76 3.43 12.5 12.5 0 0 1-4.27 2.16c-1.67.5-3.52.75-5.57.75zm19.36-34.18h9.32v12.58h11.95V287.4h9.31V321h-9.31v-12.77H625.5V321h-9.32v-33.6zm35.11 0h10.42l7.63 21.26 7.63-21.26h10.23l-13.63 33.84h-8.64l-13.64-33.84zm40.63 0h9.36V321h-9.36v-33.6zm16.78 0H718v25.44h16.27V321H708.7v-33.6zm30.84 0h9.3v25.44h16.28V321h-25.58v-33.6zm30.83 0h27.03v7.92h-17.81v5.09h16.13v7.34h-16.13v5.33h18.05V321h-27.27v-33.6zm31.27 38.02c3.3-.39 4.9-1.9 4.8-4.52h-3.7v-9.36h9.51v7.64c0 1.79-.23 3.3-.7 4.5a7.25 7.25 0 0 1-1.99 2.96 8.38 8.38 0 0 1-3.12 1.68c-1.21.37-2.57.57-4.08.6l-.72-3.5zm39.7-29.86h-10.08v-8.16h29.47v8.16h-10.08V321h-9.31v-25.44zm24.74-8.16h8.69l13.82 17.76V287.4h9.22V321h-8.16l-14.36-18.43V321h-9.21v-33.6z"></path>
            <path class="ser-logo-ruby" fill="#E84C3D" d="M157 127h30v60h-60v-30l30-30zm-22 33.31V179h44v-44h-18.69L135 160.31zM175 175l-13-23 13-13v36zm0 0h-36l13-13 23 13z"></path>
</svg>
